<?xml version="1.0" encoding="UTF-8"?>
<svg id="uuid-9a7eba60-2046-4a9f-93bc-7fc90c895b4c" data-name="Слой 1" xmlns="http://www.w3.org/2000/svg" viewBox="0 0 4260.92 2179.42">
  <g>
    <polygon points="525.25 186.66 367.18 445.18 244.82 445.18 403.06 186.66 322.55 0 444.92 0 525.25 186.66 525.25 186.66" style="fill: #4ecc0a; stroke-width: 0px;"/>
    <polygon points="1014.31 186.66 856.24 445.18 733.88 445.18 892.12 186.66 811.61 0 933.98 0 1014.31 186.66 1014.31 186.66" style="fill: #4ecc0a; stroke-width: 0px;"/>
    <polygon points="769.44 186.66 611.37 445.18 489.01 445.18 647.25 186.66 566.74 0 689.11 0 769.44 186.66 769.44 186.66" style="fill: #4ecc0a; stroke-width: 0px;"/>
    <polygon points="280.43 186.66 122.37 445.18 0 445.18 158.25 186.66 77.74 0 200.1 0 280.43 186.66 280.43 186.66" style="fill: #4ecc0a; stroke-width: 0px;"/>
    <polygon points="1258.5 186.66 1100.43 445.18 978.07 445.18 1136.31 186.66 1055.8 0 1178.17 0 1258.5 186.66 1258.5 186.66" style="fill: #4ecc0a; stroke-width: 0px;"/>
  </g>
  <polygon points="3412.02 1785.34 3323.5 1930.12 3254.97 1930.12 3343.59 1785.34 3298.5 1680.82 3367.03 1680.82 3412.02 1785.34 3412.02 1785.34" style="fill: #4ecc0a; stroke-width: 0px;"/>
  <polygon points="3685.89 1785.34 3597.37 1930.12 3528.85 1930.12 3617.46 1785.34 3572.38 1680.82 3640.9 1680.82 3685.89 1785.34 3685.89 1785.34" style="fill: #4ecc0a; stroke-width: 0px;"/>
  <polygon points="3548.76 1785.34 3460.24 1930.12 3391.72 1930.12 3480.34 1785.34 3435.25 1680.82 3503.77 1680.82 3548.76 1785.34 3548.76 1785.34" style="fill: #4ecc0a; stroke-width: 0px;"/>
  <polygon points="3274.92 1785.34 3186.4 1930.12 3117.87 1930.12 3206.49 1785.34 3161.41 1680.82 3229.93 1680.82 3274.92 1785.34 3274.92 1785.34" style="fill: #4ecc0a; stroke-width: 0px;"/>
  <polygon points="3822.63 1785.34 3734.12 1930.12 3665.59 1930.12 3754.21 1785.34 3709.12 1680.82 3777.65 1680.82 3822.63 1785.34 3822.63 1785.34" style="fill: #4ecc0a; stroke-width: 0px;"/>
  <g>
    <polygon points="3957.28 1785.34 3868.76 1930.12 3800.24 1930.12 3888.86 1785.34 3843.77 1680.82 3912.29 1680.82 3957.28 1785.34 3957.28 1785.34" style="fill: #4ecc0a; stroke-width: 0px;"/>
    <polygon points="4231.15 1785.34 4142.64 1930.12 4074.11 1930.12 4162.73 1785.34 4117.64 1680.82 4186.17 1680.82 4231.15 1785.34 4231.15 1785.34" style="fill: #4ecc0a; stroke-width: 0px;"/>
  </g>
  <polygon points="4094.03 1785.34 4005.51 1930.12 3936.98 1930.12 4025.6 1785.34 3980.52 1680.82 4049.04 1680.82 4094.03 1785.34 4094.03 1785.34" style="fill: #4ecc0a; stroke-width: 0px;"/>
  <g>
    <polygon points="3820.18 1785.34 3731.66 1930.12 3663.14 1930.12 3751.76 1785.34 3706.67 1680.82 3775.2 1680.82 3820.18 1785.34 3820.18 1785.34" style="fill: #4ecc0a; stroke-width: 0px;"/>
    <polygon points="3441.78 2034.65 3353.26 2179.42 3284.74 2179.42 3373.35 2034.65 3328.27 1930.12 3396.79 1930.12 3441.78 2034.65 3441.78 2034.65" style="fill: #4ecc0a; stroke-width: 0px;"/>
    <polygon points="3715.65 2034.65 3627.13 2179.42 3558.61 2179.42 3647.23 2034.65 3602.14 1930.12 3670.67 1930.12 3715.65 2034.65 3715.65 2034.65" style="fill: #4ecc0a; stroke-width: 0px;"/>
    <polygon points="3578.52 2034.65 3490.01 2179.42 3421.48 2179.42 3510.1 2034.65 3465.01 1930.12 3533.54 1930.12 3578.52 2034.65 3578.52 2034.65" style="fill: #4ecc0a; stroke-width: 0px;"/>
    <polygon points="3304.68 2034.65 3216.16 2179.42 3147.64 2179.42 3236.26 2034.65 3191.17 1930.12 3259.69 1930.12 3304.68 2034.65 3304.68 2034.65" style="fill: #4ecc0a; stroke-width: 0px;"/>
    <polygon points="3852.4 2034.65 3763.88 2179.42 3695.35 2179.42 3783.97 2034.65 3738.89 1930.12 3807.41 1930.12 3852.4 2034.65 3852.4 2034.65" style="fill: #4ecc0a; stroke-width: 0px;"/>
    <polygon points="3987.05 2034.65 3898.53 2179.42 3830 2179.42 3918.62 2034.65 3873.53 1930.12 3942.06 1930.12 3987.05 2034.65 3987.05 2034.65" style="fill: #4ecc0a; stroke-width: 0px;"/>
    <polygon points="4260.92 2034.65 4172.4 2179.42 4103.88 2179.42 4192.49 2034.65 4147.41 1930.12 4215.93 1930.12 4260.92 2034.65 4260.92 2034.65" style="fill: #4ecc0a; stroke-width: 0px;"/>
    <polygon points="4123.79 2034.65 4035.27 2179.42 3966.75 2179.42 4055.36 2034.65 4010.28 1930.12 4078.8 1930.12 4123.79 2034.65 4123.79 2034.65" style="fill: #4ecc0a; stroke-width: 0px;"/>
    <polygon points="3849.95 2034.65 3761.43 2179.42 3692.9 2179.42 3781.52 2034.65 3736.44 1930.12 3804.96 1930.12 3849.95 2034.65 3849.95 2034.65" style="fill: #4ecc0a; stroke-width: 0px;"/>
  </g>
  <polyline points="251.02 2179.42 149.5 2179.42 253.41 1577.82 355.34 1577.82 340.6 1662.23 332.65 1709.21 251.02 2179.42" style="fill: #2e2e2e; stroke-width: 0px;"/>
  <polyline points="456.86 2179.42 355.34 2179.42 459.25 1577.82 561.17 1577.82 546.44 1662.23 538.49 1709.21 456.86 2179.42" style="fill: #2e2e2e; stroke-width: 0px;"/>
  <polyline points="868.53 2179.42 767.01 2179.42 870.92 1577.82 972.85 1577.82 958.11 1662.23 950.16 1709.21 868.53 2179.42" style="fill: #2e2e2e; stroke-width: 0px;"/>
  <polyline points="662.69 2179.42 561.17 2179.42 665.08 1577.82 767.01 1577.82 752.27 1662.23 744.32 1709.21 662.69 2179.42" style="fill: #2e2e2e; stroke-width: 0px;"/>
  <g>
    <polyline points="3448.51 311.81 3395.89 311.81 3449.75 0 3502.58 0 3494.94 43.75 3490.82 68.1 3448.51 311.81" style="fill: #2e2e2e; stroke-width: 0px;"/>
    <polyline points="3555.19 311.81 3502.58 311.81 3556.43 0 3609.26 0 3601.62 43.75 3597.5 68.1 3555.19 311.81" style="fill: #2e2e2e; stroke-width: 0px;"/>
    <polyline points="3661.88 311.81 3609.26 311.81 3663.12 0 3715.95 0 3708.31 43.75 3704.19 68.1 3661.88 311.81" style="fill: #2e2e2e; stroke-width: 0px;"/>
    <polyline points="3768.57 311.81 3715.95 311.81 3769.81 0 3822.63 0 3815 43.75 3810.87 68.1 3768.57 311.81" style="fill: #2e2e2e; stroke-width: 0px;"/>
    <polyline points="3875.25 311.81 3822.63 311.81 3876.49 0 3929.32 0 3921.68 43.75 3917.56 68.1 3875.25 311.81" style="fill: #2e2e2e; stroke-width: 0px;"/>
    <polyline points="3981.94 311.81 3929.32 311.81 3983.18 0 4036.01 0 4028.37 43.75 4024.25 68.1 3981.94 311.81" style="fill: #2e2e2e; stroke-width: 0px;"/>
    <polyline points="4088.62 311.81 4036.01 311.81 4089.86 0 4142.69 0 4135.05 43.75 4130.93 68.1 4088.62 311.81" style="fill: #2e2e2e; stroke-width: 0px;"/>
    <polyline points="4195.31 311.81 4142.69 311.81 4196.55 0 4249.38 0 4241.74 43.75 4237.62 68.1 4195.31 311.81" style="fill: #2e2e2e; stroke-width: 0px;"/>
  </g>
  <polyline points="3448.51 623.62 3395.89 623.62 3449.75 311.81 3502.58 311.81 3494.94 355.56 3490.82 379.91 3448.51 623.62" style="fill: #2e2e2e; stroke-width: 0px;"/>
  <polyline points="3555.19 623.62 3502.58 623.62 3556.43 311.81 3609.26 311.81 3601.62 355.56 3597.5 379.91 3555.19 623.62" style="fill: #2e2e2e; stroke-width: 0px;"/>
  <polyline points="3661.88 623.62 3609.26 623.62 3663.12 311.81 3715.95 311.81 3708.31 355.56 3704.19 379.91 3661.88 623.62" style="fill: #2e2e2e; stroke-width: 0px;"/>
  <polyline points="3768.57 623.62 3715.95 623.62 3769.81 311.81 3822.63 311.81 3815 355.56 3810.87 379.91 3768.57 623.62" style="fill: #2e2e2e; stroke-width: 0px;"/>
  <polyline points="3875.25 623.62 3822.63 623.62 3876.49 311.81 3929.32 311.81 3921.68 355.56 3917.56 379.91 3875.25 623.62" style="fill: #2e2e2e; stroke-width: 0px;"/>
  <polyline points="3981.94 623.62 3929.32 623.62 3983.18 311.81 4036.01 311.81 4028.37 355.56 4024.25 379.91 3981.94 623.62" style="fill: #2e2e2e; stroke-width: 0px;"/>
  <g>
    <polyline points="4088.62 623.62 4036.01 623.62 4089.86 311.81 4142.69 311.81 4135.05 355.56 4130.93 379.91 4088.62 623.62" style="fill: #2e2e2e; stroke-width: 0px;"/>
    <polyline points="4195.31 623.62 4142.69 623.62 4196.55 311.81 4249.38 311.81 4241.74 355.56 4237.62 379.91 4195.31 623.62" style="fill: #2e2e2e; stroke-width: 0px;"/>
  </g>
</svg>