<?xml version="1.0" encoding="UTF-8"?>
<svg id="uuid-6de4c033-f96c-49b7-b966-d4509ad3211a" data-name="Слой 1" xmlns="http://www.w3.org/2000/svg" xmlns:xlink="http://www.w3.org/1999/xlink" viewBox="0 0 206.87 63.52">
  <defs>
    <linearGradient id="uuid-2ffbbc06-4530-43a3-9179-fc44b80d801a" data-name="GradientFill 2" x1="34.74" y1="7.48" x2="47.99" y2="7.48" gradientUnits="userSpaceOnUse">
      <stop offset="0" stop-color="#000100"/>
      <stop offset=".12" stop-color="#030601"/>
      <stop offset=".27" stop-color="#0c1705"/>
      <stop offset=".45" stop-color="#1b320c"/>
      <stop offset=".64" stop-color="#305815"/>
      <stop offset=".84" stop-color="#4b8721"/>
      <stop offset="1" stop-color="#64b32c"/>
    </linearGradient>
    <linearGradient id="uuid-a85c989e-5ad1-4181-94c8-1f580f2f3985" data-name="GradientFill 2" x1="34.74" x2="48" xlink:href="#uuid-2ffbbc06-4530-43a3-9179-fc44b80d801a"/>
    <linearGradient id="uuid-5ae0acca-7aa4-4599-ab28-f069223cca1c" data-name="GradientFill 2" x1="34.73" y1="7.48" x2="48" y2="7.48" xlink:href="#uuid-2ffbbc06-4530-43a3-9179-fc44b80d801a"/>
    <linearGradient id="uuid-0e6b9f15-4091-4c85-b5f6-94e11395eb23" data-name="GradientFill 2" x1="34.73" y1="7.48" x2="47.99" y2="7.48" xlink:href="#uuid-2ffbbc06-4530-43a3-9179-fc44b80d801a"/>
    <linearGradient id="uuid-17cb7102-c36c-483c-ae70-2c04ba72557e" data-name="GradientFill 2" x1="34.74" x2="47.99" xlink:href="#uuid-2ffbbc06-4530-43a3-9179-fc44b80d801a"/>
    <linearGradient id="uuid-75eedf80-f461-4e4a-bd75-3c21ed723e35" data-name="GradientFill 2" x1="34.75" y1="7.48" x2="48" y2="7.48" xlink:href="#uuid-2ffbbc06-4530-43a3-9179-fc44b80d801a"/>
    <linearGradient id="uuid-3bfc2294-f1b1-474e-be43-5fd9ce1e0b27" data-name="GradientFill 2" x1="34.71" y1="7.48" x2="47.97" y2="7.48" xlink:href="#uuid-2ffbbc06-4530-43a3-9179-fc44b80d801a"/>
    <linearGradient id="uuid-ffc1e968-33c9-4008-a7f6-58651c83ebcb" data-name="GradientFill 2" x1="34.73" x2="47.99" xlink:href="#uuid-2ffbbc06-4530-43a3-9179-fc44b80d801a"/>
    <linearGradient id="uuid-5b05b3bc-abe0-43bc-8ab5-70a7f0f6ecc0" data-name="GradientFill 2" x1="34.81" y1="7.48" x2="48.05" y2="7.48" xlink:href="#uuid-2ffbbc06-4530-43a3-9179-fc44b80d801a"/>
    <linearGradient id="uuid-c02b2910-c997-4b6a-bea6-f689c1aff024" data-name="GradientFill 2" x1="34.71" x2="47.97" xlink:href="#uuid-2ffbbc06-4530-43a3-9179-fc44b80d801a"/>
    <linearGradient id="uuid-71a305f1-d4c2-4bf8-8ac6-3c8438f9f137" data-name="GradientFill 2" x1="34.7" x2="47.96" xlink:href="#uuid-2ffbbc06-4530-43a3-9179-fc44b80d801a"/>
    <linearGradient id="uuid-fd1f6b05-8149-454b-828c-c1a80b3d6129" data-name="GradientFill 2" x1="34.69" x2="47.95" xlink:href="#uuid-2ffbbc06-4530-43a3-9179-fc44b80d801a"/>
    <linearGradient id="uuid-5973b97c-8d7e-4803-aa04-e7df15277045" data-name="GradientFill 2" x1="34.75" y1="7.48" x2="48.01" y2="7.48" xlink:href="#uuid-2ffbbc06-4530-43a3-9179-fc44b80d801a"/>
    <linearGradient id="uuid-0ce0f1f3-0a0e-47c7-af15-9e0eb4b02099" data-name="GradientFill 2" x1="34.68" x2="47.94" xlink:href="#uuid-2ffbbc06-4530-43a3-9179-fc44b80d801a"/>
    <linearGradient id="uuid-b668975f-921f-4e42-9532-189786fe633e" data-name="GradientFill 2" x1="77.92" y1="25.43" x2="86.54" y2="25.43" xlink:href="#uuid-2ffbbc06-4530-43a3-9179-fc44b80d801a"/>
  </defs>
  <polygon points="0 .57 11.23 .57 11.23 14.39 8.38 14.39 8.38 2.88 2.85 2.88 2.85 14.39 0 14.39 0 .57" style="fill: url(#uuid-2ffbbc06-4530-43a3-9179-fc44b80d801a); fill-rule: evenodd; stroke-width: 0px;"/>
  <path d="M22.29.59v.02h.28c.46.05.89.14,1.29.27h0s.04.01.04.01c.21.07.41.15.6.24l.08.04h0s0,0,0,0c.15.07.29.15.42.24v.05h.07c.12.08.24.17.36.26v.02h.02c.14.12.28.25.4.39v.04h.03l.11.13h0s.01.01.01.01c.11.14.21.28.3.44.1.16.18.32.25.49v.07h.03c.11.27.2.54.25.83v.16h.03c.04.25.06.52.07.79v.04c0,.21,0,.4-.03.6h-.06v.41c-.02.1-.04.2-.07.3h-.07v.22c-.04.12-.09.23-.14.34h0c-.04.11-.09.2-.14.29h0s-.08.14-.08.14h-.06v.09l-.03.05h-.11v.15s-.07.09-.11.13h-.03v.04l-.09.1h-.05v.05l-.09.09h-.05v.05s-.1.09-.15.14l-.12.1h0c-.06.05-.12.1-.19.14h-.1v.07l-.12.08h-.16v.09l-.09.05h-.2v.1l-.1.05h-.04v.02c-.25.11-.52.2-.8.27h-.2v.05c-.18.04-.36.07-.55.1h-.59v.06c-.19.01-.38.02-.58.02h-2.5v4.87h-2.85V.57h5.44c.17,0,.33,0,.49.02h0ZM19.21,2.88v4.34h2.54c.75,0,1.33-.18,1.72-.53.39-.35.59-.86.59-1.52s-.2-1.22-.6-1.64c-.4-.42-.95-.63-1.65-.65h-2.61Z" style="fill: url(#uuid-a85c989e-5ad1-4181-94c8-1f580f2f3985); fill-rule: evenodd; stroke-width: 0px;"/>
  <path d="M36.82,14.58h0s-.09,0-.09,0c-.31-.01-.61-.04-.9-.1v-.05h-.23c-.16-.04-.33-.08-.48-.13h0s-.04-.01-.04-.01c-.08-.03-.17-.06-.25-.09v-.05h-.14c-.1-.04-.19-.08-.29-.13h0s-.03-.01-.03-.01c-.09-.04-.17-.09-.26-.13h0s-.02,0-.02,0c-.06-.03-.12-.07-.19-.11-.08-.05-.15-.1-.23-.15v-.03h-.04c-.19-.13-.36-.27-.53-.42h0s0,0,0,0l-.14-.13h0s-.01-.01-.01-.01l-.13-.13h0s0-.01,0-.01c-.15-.16-.29-.32-.42-.5v-.07h-.05l-.09-.14h0s0,0,0,0c-.05-.07-.09-.14-.14-.22v-.07h-.04c-.09-.15-.17-.31-.25-.47-.05-.1-.09-.2-.13-.3v-.09h-.04c-.04-.09-.07-.18-.11-.28v-.15h-.05c-.03-.09-.06-.19-.09-.29v-.14h-.04c-.12-.43-.2-.89-.25-1.37v-.34h-.03c-.01-.19-.02-.38-.02-.58v-.75c0-.18,0-.35.02-.53h.03v-.4c.05-.51.14-1,.26-1.46h.02v-.07c.03-.12.07-.24.11-.35h.03v-.09c.04-.11.09-.23.13-.34h.01v-.03c.04-.09.08-.18.12-.27.04-.09.09-.18.14-.27h.03v-.05c.04-.08.09-.16.13-.23h0s.08-.14.08-.14h.06v-.1c.04-.06.09-.13.13-.19h.01v-.02c.27-.37.58-.7.93-.98h.07v-.06l.11-.08h.03v-.02c.11-.08.23-.16.35-.23.1-.06.2-.12.3-.17h.07v-.04c.07-.04.15-.07.22-.11h.07v-.03c.09-.04.18-.08.27-.11h.01c.14-.06.27-.1.41-.14h.01c.2-.06.4-.11.61-.14h.39v-.05c.23-.02.47-.04.71-.04s.48.01.71.04v.05h.38c.21.04.42.08.62.14h0s0,0,0,0c.14.04.28.09.42.14h0s0,0,0,0c.09.04.18.07.28.11v.03h.06c.08.03.15.07.22.11v.03h.06c.1.05.2.11.3.17.12.07.24.15.35.24v.02h.02l.12.09v.05h.06c.29.24.55.5.79.8v.05h.04l.1.13h0s0,0,0,0c.05.06.09.13.14.2v.09h.06l.09.14h0s0,0,0,0c.05.08.09.16.14.24v.04h.02c.05.09.09.18.14.27.04.09.09.19.13.28v.02h0c.05.11.09.23.14.35v.08h.03c.04.12.08.24.12.37v.06h.02c.13.47.22.97.27,1.5v.5h.03c0,.12,0,.25,0,.37v.74c0,.15,0,.3-.01.45h-.03v.43c-.04.5-.13.97-.25,1.42h-.04v.15c-.04.14-.09.28-.13.42h0v.02c-.08.21-.16.42-.25.62-.08.17-.17.34-.26.5h-.06v.09c-.04.06-.08.13-.12.19h-.02v.03c-.16.24-.34.47-.54.68h-.03v.04l-.11.11h-.04v.04l-.11.11h-.03v.03l-.13.11h-.01c-.18.16-.37.3-.57.43l-.04.02c-.07.04-.13.08-.2.12h-.05v.03c-.07.04-.15.08-.22.12h-.06v.03c-.08.04-.17.08-.25.11h-.03c-.12.06-.23.1-.35.14h-.07v.02c-.15.05-.3.09-.45.12h-.12v.03c-.33.07-.67.1-1.02.12h-.12s-.13,0-.13,0h-.16ZM34.74,11.07h0c.52.78,1.26,1.17,2.24,1.17s1.69-.38,2.2-1.12c.51-.75.77-1.84.78-3.28v-.67c0-1.45-.26-2.55-.78-3.3-.52-.75-1.26-1.13-2.22-1.13s-1.69.37-2.21,1.12c-.52.74-.78,1.83-.79,3.27v.68c0,1.41.26,2.51.78,3.28Z" style="fill: url(#uuid-5ae0acca-7aa4-4599-ab28-f069223cca1c); fill-rule: evenodd; stroke-width: 0px;"/>
  <path d="M52.35,13.18v-.03h-.38c-.41-.05-.81-.13-1.18-.25v-.04h-.11c-.11-.04-.21-.07-.31-.12v-.03h-.06c-.17-.07-.34-.15-.5-.24-.88-.47-1.56-1.13-2.05-1.99-.03-.06-.07-.12-.1-.18h0s0-.01,0-.01c-.11-.21-.2-.42-.28-.64v-.07h-.02c-.12-.36-.21-.73-.26-1.12v-.3h-.03c-.02-.18-.02-.36-.02-.54v-.1c0-.17,0-.34.02-.5h.04v-.35c.05-.42.15-.83.28-1.21h0c.03-.1.07-.19.11-.29h.03v-.08c.07-.17.15-.33.24-.49.14-.26.3-.49.47-.72h0c.42-.54.93-.99,1.55-1.33.26-.15.53-.27.82-.38h.06v-.02c.32-.11.66-.2,1-.26h.28v-.04c.24-.03.49-.05.75-.05h.27V0h2.74v1.8h.17c.32,0,.62.02.92.06v.03h.2c.32.05.64.13.94.24v.05h.13c.1.04.2.08.3.12v.02h.05c.14.06.27.13.4.2.88.48,1.56,1.16,2.05,2.03.08.14.15.28.21.42v.05h.02c.04.1.08.2.12.3v.13h.05c.1.3.18.61.24.94v.34h.05c.03.25.04.5.04.76v.05c0,.63-.07,1.21-.23,1.75h0v.04c-.18.61-.45,1.17-.83,1.67h-.03v.04c-.15.2-.32.39-.5.57-.2.2-.41.38-.64.54h0c-.22.16-.46.31-.71.43h0c-.22.11-.46.21-.7.28h0c-.16.06-.33.1-.5.14h-.07v.02c-.25.06-.52.1-.8.13h-.2v.02c-.21.02-.43.02-.66.02v1.77h-2.74v-1.77h-.18c-.14,0-.27,0-.41-.01h0ZM55.67,4.17v6.66h.19c.93,0,1.66-.29,2.2-.88.54-.58.8-1.38.8-2.4s-.26-1.89-.79-2.49c-.53-.6-1.28-.9-2.26-.9h-.14ZM50.52,9.96h0c.54.58,1.3.87,2.27.87h.14v-6.66h-.18c-.94,0-1.68.3-2.23.89-.54.6-.81,1.43-.81,2.52,0,1.01.27,1.81.81,2.39Z" style="fill: url(#uuid-0e6b9f15-4091-4c85-b5f6-94e11395eb23); fill-rule: evenodd; stroke-width: 0px;"/>
  <polygon points="65.9 .57 75.14 .57 75.14 2.88 68.74 2.88 68.74 6.17 74.21 6.17 74.21 8.4 68.74 8.4 68.74 12.1 75.16 12.1 75.16 14.39 65.9 14.39 65.9 .57" style="fill: url(#uuid-17cb7102-c36c-483c-ae70-2c04ba72557e); fill-rule: evenodd; stroke-width: 0px;"/>
  <path d="M84.4,14.58h0s-.1,0-.1,0c-.58-.02-1.11-.11-1.61-.26v-.03h-.09c-.32-.1-.63-.24-.91-.4v-.02h-.04c-.47-.28-.9-.64-1.27-1.07-.09-.1-.17-.21-.25-.32v-.03h-.03c-.09-.13-.18-.26-.26-.4v-.03h-.02c-.1-.16-.19-.33-.27-.51v-.06h-.03c-.04-.09-.08-.18-.11-.27v-.02h0c-.19-.48-.33-.99-.42-1.55h0s0-.01,0-.01c-.09-.53-.13-1.1-.13-1.71v-.91c0-.48.04-.94.1-1.37h.03v-.21c.04-.22.08-.44.14-.65h0v-.02c.04-.14.07-.27.12-.41h.02v-.07c.04-.12.08-.24.13-.35h.02v-.04c.04-.11.09-.22.14-.33.08-.17.16-.33.25-.49h.03v-.06c.04-.08.09-.15.14-.23h0s.09-.14.09-.14h.05v-.07c.13-.18.26-.34.41-.5h.02v-.02l.12-.12h.02v-.02l.13-.12h.01c.17-.16.34-.3.52-.43h.05v-.03l.16-.1h0c.09-.05.17-.1.26-.15h0c.09-.05.18-.1.27-.14h.01c.11-.05.21-.1.32-.14h.1v-.04c.3-.11.62-.19.95-.25h.34v-.05c.23-.03.47-.04.71-.04h.05c.23,0,.45,0,.66.03v.07h.54c.15.02.31.05.46.09v.05h.21c.22.06.44.13.64.22v.07h.15l.13.06v.08h.16l.13.07v.07h.12c.06.03.11.07.17.1v.04h.05c.15.11.3.22.43.34l.08.07v.02h.02l.13.12v.02h.02l.12.13h0s.02.01.02.01c.04.05.09.1.13.15v.14h.11l.03.04v.1h.07l.07.1v.04h.03c.04.06.08.12.12.18v.1h.06c.08.15.16.3.23.46v.11h.04c.03.09.07.17.1.26v.17h.06c.03.1.06.2.09.31v.26h.06c.03.15.06.31.08.46v.11h.01c0,.08.02.15.02.23h-2.85c-.07-.89-.32-1.54-.74-1.94-.43-.4-1.08-.6-1.95-.6-.95,0-1.66.34-2.13,1.02-.47.68-.71,1.74-.73,3.16v1.04c0,1.49.23,2.59.68,3.28.45.69,1.17,1.03,2.14,1.03.88,0,1.53-.2,1.97-.6.43-.4.68-1.02.74-1.87h2.85v.09h-.02v.14c-.02.2-.05.39-.09.57h-.06v.26c-.03.11-.06.21-.09.31h-.05v.16c-.1.29-.23.57-.38.83h-.04v.07l-.04.07h-.1v.15l-.1.13h-.04v.06l-.07.08h-.08v.09l-.04.05h-.1v.11c-.11.11-.22.22-.34.33-.05.05-.11.09-.17.14h-.06v.04l-.13.1h-.01c-.07.06-.13.1-.2.14h-.08v.05l-.16.09h-.13v.07l-.15.07h-.14v.06c-.06.03-.12.05-.19.08h-.09v.04c-.27.1-.56.19-.87.25h-.41v.07c-.27.04-.55.06-.84.07h-.16s-.13,0-.13,0h-.16Z" style="fill: url(#uuid-75eedf80-f461-4e4a-bd75-3c21ed723e35); fill-rule: evenodd; stroke-width: 0px;"/>
  <path d="M99.78,14.58h0s-.12,0-.12,0c-.41-.01-.8-.06-1.16-.14h0s0,0,0,0c-.14-.03-.28-.07-.42-.11v-.03h-.11c-.31-.1-.61-.23-.89-.39v-.04h-.06c-.07-.04-.15-.09-.22-.14h0s0,0,0,0c-.25-.17-.48-.36-.7-.57-.12-.11-.23-.23-.34-.36-.39-.46-.71-.98-.95-1.57v-.06h-.02c-.1-.25-.19-.52-.26-.79v-.06h-.02c-.15-.6-.24-1.25-.27-1.95v-.33h0v-.14s0-.91,0-.91v-.09h0v-.29c.02-.44.06-.87.14-1.27h0v-.03c.03-.19.07-.37.12-.54h.02v-.09c.03-.11.07-.23.1-.34h.04v-.13c.04-.1.07-.2.11-.3h.03v-.08c.04-.1.08-.19.12-.28.08-.17.16-.33.25-.49h.05v-.09c.04-.07.08-.13.12-.2h.02v-.03c.16-.25.34-.47.54-.68h.04v-.04l.1-.11h.04v-.04l.11-.1h.03v-.03l.13-.11h.01c.18-.16.37-.29.56-.42h0c.09-.05.17-.1.26-.15h.03v-.02c.08-.05.17-.09.25-.13h.03c.1-.06.2-.1.31-.14h.12v-.04c.3-.11.61-.18.93-.24h.36v-.05c.22-.02.46-.04.69-.04h.05c.23,0,.46,0,.68.03v.06h.52c.16.02.32.06.48.09v.05h.19c.23.06.45.14.66.23v.06h.13l.15.07v.07h.14l.15.08v.06h.1c.06.04.12.08.18.12v.02h.04l.11.08v.07h.09c.08.06.16.13.24.2.09.07.17.15.24.23h0s0,0,0,0c.1.1.19.2.28.31v.11h.09l.05.07v.07h.05l.09.13h0s0,.01,0,.01c.05.07.09.14.13.22v.07h.04c.09.16.17.33.25.51v.06h.03c.04.1.08.21.11.31v.26h.08c.02.08.04.16.06.24v.33h.07c.03.15.05.3.07.46v.11h.01v.09s-2.84,0-2.84,0c-.07-.89-.32-1.54-.75-1.94-.43-.4-1.08-.6-1.95-.6-.95,0-1.66.34-2.13,1.02-.47.68-.71,1.74-.72,3.16v1.04c0,1.49.23,2.59.68,3.28.45.69,1.17,1.03,2.14,1.03.88,0,1.54-.2,1.97-.6.43-.4.68-1.02.75-1.87h2.85c-.02.23-.04.45-.08.66h-.07v.32c-.02.09-.04.17-.06.25h-.08v.25c-.04.11-.07.21-.12.32h-.02v.06c-.08.18-.16.35-.26.51h-.03v.04l-.06.1h-.08v.12c-.04.05-.08.11-.11.16h-.03v.03l-.09.11h-.06v.07l-.07.07h-.08v.09c-.11.12-.23.24-.36.35-.05.05-.11.09-.17.14h-.04v.03s-.1.07-.15.11h-.14v.09l-.08.05h-.07v.04c-.06.04-.11.07-.17.1h-.11v.06c-.05.03-.11.06-.17.08h-.12v.05c-.07.03-.14.06-.21.09h-.08v.03c-.11.04-.22.08-.33.11h-.1v.03c-.15.04-.3.08-.46.11h-.39v.07c-.27.04-.56.06-.86.07h-.14s-.15,0-.15,0h-.14Z" style="fill: url(#uuid-3bfc2294-f1b1-474e-be43-5fd9ce1e0b27); fill-rule: evenodd; stroke-width: 0px;"/>
  <polygon points="109.91 .57 112.76 .57 112.76 9.76 118.29 .57 121.14 .57 121.14 14.39 118.29 14.39 118.29 5.21 112.76 14.39 109.91 14.39 109.91 .57" style="fill: url(#uuid-ffc1e968-33c9-4008-a7f6-58651c83ebcb); fill-rule: evenodd; stroke-width: 0px;"/>
  <path d="M131.55,14.58h0s-.16,0-.16,0c-.34-.01-.66-.05-.98-.11v-.03h-.16c-.29-.07-.57-.15-.84-.26v-.03h-.07c-.07-.03-.14-.06-.22-.1v-.05h-.1c-.16-.08-.31-.16-.46-.25-.15-.09-.3-.19-.44-.3v-.02h-.02l-.12-.1v-.05h-.06l-.09-.07v-.07h-.08c-.23-.21-.44-.44-.64-.7v-.02h-.01c-.09-.12-.18-.25-.27-.39v-.04h-.02c-.12-.19-.24-.4-.34-.61-.07-.15-.14-.31-.21-.47v-.05h-.02c-.04-.11-.08-.23-.12-.34v-.08h-.03c-.04-.13-.08-.27-.11-.41v-.02h0c-.05-.22-.1-.44-.14-.67v-.32h-.05c-.04-.37-.07-.75-.07-1.15v-.75c0-.43.03-.84.08-1.24h.04v-.24c.03-.21.07-.41.12-.61h.02v-.09c.03-.11.06-.22.09-.33h.05v-.17c.03-.09.06-.18.09-.26h.05v-.14c.06-.15.12-.3.19-.44.07-.14.14-.28.22-.42h.02v-.04c.08-.13.16-.26.24-.39h.04v-.06c.09-.13.18-.25.28-.37h0c.08-.1.16-.2.25-.29h.04v-.03l.11-.11h.03v-.03l.12-.11h.02v-.02c.17-.15.34-.28.53-.41h.04v-.03l.14-.09c.19-.12.38-.22.58-.31h.14v-.06c.07-.03.13-.06.2-.08h.08v-.03c.31-.11.63-.2.97-.25h.31v-.05c.25-.03.51-.04.78-.04s.53.01.79.04v.05h.31c.34.06.66.14.97.26v.03h.08c.07.03.14.05.21.08v.06h.13c.2.09.39.2.58.31l.14.09v.03h.04c.19.13.36.26.53.41v.02h.02l.12.11v.03h.03l.11.11v.03h.03c.19.2.37.43.54.66v.05h.04c.09.13.17.26.25.4v.03h.01c.08.13.15.27.22.42l.05.12v.04h.02c.04.1.09.2.13.3v.12h.05c.03.09.07.18.09.28v.15h.05c.04.11.07.23.1.35v.08h.02c.05.21.09.42.12.63v.22h.03c.05.36.07.72.08,1.1v1c0,.36-.03.7-.07,1.04h-.04v.31c-.04.24-.08.47-.14.69h0v.03c-.03.14-.07.27-.11.4h-.03v.1c-.04.11-.07.22-.11.33h-.03v.07c-.06.15-.12.29-.18.42-.11.22-.22.44-.35.64h-.04v.07c-.08.13-.16.25-.25.36h-.04v.04c-.23.3-.49.57-.77.81h-.08v.07l-.09.07h-.05v.04c-.13.1-.26.19-.39.27-.25.16-.51.29-.79.4h-.1v.04c-.09.04-.19.07-.28.1h0c-.17.06-.34.1-.52.14h-.19v.04c-.3.06-.62.09-.95.1h-.19s-.05,0-.05,0h-.09ZM129.4,11.07h0c.52.78,1.27,1.17,2.24,1.17s1.69-.38,2.2-1.12c.51-.75.77-1.84.78-3.28v-.67c0-1.45-.26-2.55-.78-3.3-.52-.75-1.26-1.13-2.22-1.13s-1.69.37-2.21,1.12c-.52.74-.78,1.83-.79,3.27v.68c0,1.41.26,2.51.78,3.28Z" style="fill: url(#uuid-5b05b3bc-abe0-43bc-8ab5-70a7f0f6ecc0); fill-rule: evenodd; stroke-width: 0px;"/>
  <polygon points="142.14 .57 144.98 .57 144.98 6.17 150.54 6.17 150.54 .57 153.38 .57 153.38 14.39 150.54 14.39 150.54 8.46 144.98 8.46 144.98 14.39 142.14 14.39 142.14 .57" style="fill: url(#uuid-c02b2910-c997-4b6a-bea6-f689c1aff024); fill-rule: evenodd; stroke-width: 0px;"/>
  <path d="M160.04,7.45h0s2.56-6.88,2.56-6.88h2.64l5.17,13.82h-3.03l-.96-2.85h-4.99l-.95,2.85h-3.03l2.58-6.94h0ZM163.92,4.06l-1.72,5.17h3.45l-1.74-5.17Z" style="fill: url(#uuid-71a305f1-d4c2-4bf8-8ac6-3c8438f9f137); fill-rule: evenodd; stroke-width: 0px;"/>
  <path d="M179.29,8.73h-.02v.21c-.04.38-.09.74-.14,1.07h0c-.04.25-.09.49-.14.71h0v.03c-.04.19-.09.37-.14.54h0c-.03.13-.07.24-.1.35-.32.94-.79,1.64-1.42,2.08-.15.11-.32.2-.5.29h-.12v.05c-.08.03-.16.06-.25.09h-.04c-.16.06-.34.11-.52.14h-.19v.03c-.29.04-.6.07-.93.07h-.74v-2.29l.47-.05c.72-.09,1.23-.51,1.53-1.24.31-.73.5-2.03.58-3.9l.24-6.34h9.26v13.82h-2.86V2.88h-3.68l-.23,4.88c-.02.34-.05.67-.07.98Z" style="fill: url(#uuid-fd1f6b05-8149-454b-828c-c1a80b3d6129); fill-rule: evenodd; stroke-width: 0px;"/>
  <rect x="202.84" y=".57" width="2.85" height="13.82" style="fill: url(#uuid-5973b97c-8d7e-4803-aa04-e7df15277045); stroke-width: 0px;"/>
  <path d="M196.79,5.56v.04h.48c.18.02.35.04.51.07v.07h.35c.17.04.34.09.5.14h0s.01,0,.01,0c.09.03.18.06.27.1v.05h.11c.06.02.12.05.18.08v.07h.14l.15.07v.07h.12c.06.03.11.07.17.1v.04h.06c.13.09.26.18.38.28.04.04.09.07.13.11v.04h.04l.1.1v.05h.04l.1.1v.04h.04s.07.08.1.12v.16h.13l.02.02v.12h.08l.06.09v.05h.03c.1.16.18.34.25.51v.06h.02c.05.12.09.24.12.36v.35h.08c.03.15.05.3.06.45v.26h.02v.19s0,.1,0,.1h-.02v.35c-.01.17-.04.34-.07.5h-.07v.31c-.04.14-.08.27-.13.4h-.01v.03c-.03.09-.07.17-.11.26h-.03v.06c-.04.08-.08.15-.13.23h-.02v.03l-.07.11h-.07v.1l-.03.04h-.11v.15s-.07.09-.11.13h-.03v.03l-.1.11h-.04v.04l-.1.1h-.04v.04l-.12.11c-.12.1-.24.2-.37.29h-.08v.06l-.13.09h-.15v.09l-.09.05h-.19v.1l-.1.05h-.04v.02c-.24.1-.48.19-.75.26h-.25v.06c-.13.03-.26.06-.4.08h-.46v.06c-.24.02-.49.04-.76.04h-5.19V.57h2.87v4.98h2.22c.15,0,.29,0,.43,0h0ZM194.14,7.85v4.25h2.27c.73,0,1.31-.2,1.74-.6.43-.4.65-.93.65-1.6,0-.63-.21-1.12-.62-1.49-.41-.36-.98-.55-1.7-.56h-2.33Z" style="fill: url(#uuid-0ce0f1f3-0a0e-47c7-af15-9e0eb4b02099); fill-rule: evenodd; stroke-width: 0px;"/>
  <rect y="20.81" width="206.15" height="9.25" style="fill: url(#uuid-b668975f-921f-4e42-9532-189786fe633e); stroke-width: 0px;"/>
  <path d="M6.01,42.94v6.98h-1.44v-2.65c-.44.09-.9.14-1.37.14-.88,0-1.56-.19-2.01-.58-.46-.39-.7-.95-.71-1.68v-2.21h1.44v2.18c0,.4.1.69.29.86.19.17.52.26.99.26s.93-.05,1.37-.14v-3.17h1.44Z" style="fill: #000100; fill-rule: evenodd; stroke-width: 0px;"/>
  <polygon points="11.91 46.89 9.15 46.89 9.15 48.76 12.39 48.76 12.39 49.92 7.72 49.92 7.72 42.94 12.38 42.94 12.38 44.1 9.15 44.1 9.15 45.77 11.91 45.77 11.91 46.89" style="fill: #000100; fill-rule: evenodd; stroke-width: 0px;"/>
  <polygon points="15.63 42.94 17.43 48 19.21 42.94 21.1 42.94 21.1 49.92 19.66 49.92 19.66 48.01 19.8 44.72 17.92 49.92 16.93 49.92 15.05 44.72 15.19 48.01 15.19 49.92 13.76 49.92 13.76 42.94 15.63 42.94" style="fill: #000100; fill-rule: evenodd; stroke-width: 0px;"/>
  <polygon points="28.49 49.92 27.05 49.92 27.05 44.1 24.25 44.1 24.25 49.92 22.81 49.92 22.81 42.94 28.49 42.94 28.49 49.92" style="fill: #000100; fill-rule: evenodd; stroke-width: 0px;"/>
  <polygon points="34.41 42.94 35.85 42.94 35.85 49.92 34.41 49.92 34.41 45.28 31.61 49.92 30.17 49.92 30.17 42.94 31.61 42.94 31.61 47.58 34.41 42.94" style="fill: #000100; fill-rule: evenodd; stroke-width: 0px;"/>
  <path d="M41.77,46.27c0-.73-.13-1.29-.39-1.67-.26-.38-.64-.57-1.12-.57s-.85.19-1.12.56c-.26.37-.4.92-.4,1.65v.34c0,.71.13,1.27.39,1.66.26.39.64.59,1.13.59s.85-.19,1.11-.57c.26-.38.39-.93.39-1.66v-.34h0ZM43.23,46.59c0,.69-.12,1.29-.36,1.81-.24.52-.59.92-1.04,1.2-.45.28-.97.42-1.56.42s-1.09-.14-1.55-.42c-.45-.28-.8-.67-1.05-1.19-.25-.52-.38-1.11-.38-1.78v-.34c0-.69.12-1.29.37-1.81.25-.52.6-.92,1.05-1.2.45-.28.97-.42,1.55-.42s1.1.14,1.55.42c.45.28.8.68,1.05,1.2.25.52.37,1.12.37,1.81v.31Z" style="fill: #000100; fill-rule: evenodd; stroke-width: 0px;"/>
  <polygon points="50.37 49.92 48.94 49.92 48.94 46.93 46.13 46.93 46.13 49.92 44.69 49.92 44.69 42.94 46.13 42.94 46.13 45.77 48.94 45.77 48.94 42.94 50.37 42.94 50.37 49.92" style="fill: #000100; fill-rule: evenodd; stroke-width: 0px;"/>
  <path d="M53.95,47.32h1.75l-.88-2.61-.87,2.61h0ZM56.08,48.48h-2.52l-.48,1.44h-1.53l2.6-6.98h1.33l2.61,6.98h-1.53l-.48-1.44Z" style="fill: #000100; fill-rule: evenodd; stroke-width: 0px;"/>
  <polygon points="63.67 44.1 61.53 44.1 61.53 49.92 60.09 49.92 60.09 44.1 57.98 44.1 57.98 42.94 63.67 42.94 63.67 44.1" style="fill: #000100; fill-rule: evenodd; stroke-width: 0px;"/>
  <polygon points="73.5 49.92 72.06 49.92 72.06 44.1 69.26 44.1 69.26 49.92 67.82 49.92 67.82 42.94 73.5 42.94 73.5 49.92" style="fill: #000100; fill-rule: evenodd; stroke-width: 0px;"/>
  <path d="M79.44,46.27c0-.73-.13-1.29-.39-1.67-.26-.38-.64-.57-1.12-.57s-.85.19-1.12.56c-.26.37-.39.92-.4,1.65v.34c0,.71.13,1.27.39,1.66.26.39.64.59,1.13.59s.85-.19,1.11-.57c.26-.38.39-.93.39-1.66v-.34h0ZM80.89,46.59c0,.69-.12,1.29-.36,1.81-.24.52-.59.92-1.04,1.2s-.97.42-1.56.42-1.09-.14-1.55-.42c-.45-.28-.8-.67-1.05-1.19-.25-.52-.38-1.11-.38-1.78v-.34c0-.69.12-1.29.37-1.81.25-.52.6-.92,1.05-1.2.45-.28.97-.42,1.55-.42s1.1.14,1.55.42c.45.28.8.68,1.05,1.2.25.52.37,1.12.37,1.81v.31Z" style="fill: #000100; fill-rule: evenodd; stroke-width: 0px;"/>
  <polygon points="90.95 49.92 89.51 49.92 89.51 44.1 86.71 44.1 86.71 49.92 85.28 49.92 85.28 42.94 90.95 42.94 90.95 49.92" style="fill: #000100; fill-rule: evenodd; stroke-width: 0px;"/>
  <path d="M94.1,46.29h1.29c.38,0,.67-.09.87-.27.2-.18.3-.43.3-.77s-.1-.62-.3-.83c-.2-.21-.48-.32-.83-.33h-1.32v2.19h0ZM94.1,47.46v2.46h-1.44v-6.98h2.72c.52,0,.98.1,1.38.29.4.19.7.46.92.82.21.35.32.75.32,1.21,0,.68-.23,1.22-.7,1.62-.47.39-1.12.59-1.94.59h-1.26Z" style="fill: #000100; fill-rule: evenodd; stroke-width: 0px;"/>
  <path d="M103.7,46.27c0-.73-.13-1.29-.39-1.67-.26-.38-.64-.57-1.12-.57s-.85.19-1.12.56c-.26.37-.39.92-.4,1.65v.34c0,.71.13,1.27.39,1.66.26.39.64.59,1.13.59s.85-.19,1.11-.57c.26-.38.39-.93.39-1.66v-.34h0ZM105.15,46.59c0,.69-.12,1.29-.36,1.81-.24.52-.59.92-1.04,1.2-.45.28-.97.42-1.55.42s-1.09-.14-1.55-.42c-.45-.28-.8-.67-1.06-1.19-.25-.52-.37-1.11-.38-1.78v-.34c0-.69.12-1.29.37-1.81.25-.52.6-.92,1.05-1.2.45-.28.97-.42,1.55-.42s1.1.14,1.55.42c.45.28.8.68,1.05,1.2.25.52.37,1.12.37,1.81v.31Z" style="fill: #000100; fill-rule: evenodd; stroke-width: 0px;"/>
  <path d="M110.75,44.76v3.36h.1c.47,0,.84-.15,1.11-.44.27-.29.4-.7.4-1.21s-.13-.95-.4-1.26c-.27-.3-.65-.46-1.14-.46h-.07ZM109.28,44.76c-.48,0-.85.15-1.12.45-.27.3-.41.72-.41,1.27,0,.51.14.91.41,1.21.27.29.65.44,1.15.44h.07v-3.36h-.09ZM110.75,43.56h.09c.54,0,1.04.12,1.48.36.44.24.78.58,1.03,1.03.25.44.37.95.37,1.52,0,.84-.27,1.52-.8,2.05-.54.53-1.26.8-2.17.8v.89h-1.38v-.89h-.09c-.55,0-1.05-.12-1.49-.36-.44-.24-.79-.57-1.03-1-.24-.43-.37-.92-.37-1.48s.12-1.06.36-1.5c.24-.44.58-.79,1.02-1.03s.93-.38,1.47-.38h.13v-.91h1.38v.91Z" style="fill: #000100; fill-rule: evenodd; stroke-width: 0px;"/>
  <polygon points="119.24 46.89 116.48 46.89 116.48 48.76 119.72 48.76 119.72 49.92 115.04 49.92 115.04 42.94 119.71 42.94 119.71 44.1 116.48 44.1 116.48 45.77 119.24 45.77 119.24 46.89" style="fill: #000100; fill-rule: evenodd; stroke-width: 0px;"/>
  <path d="M126.39,47.6c-.06.75-.33,1.34-.83,1.77-.5.43-1.16.65-1.98.65-.89,0-1.6-.3-2.11-.9-.51-.6-.77-1.43-.77-2.48v-.43c0-.67.12-1.26.36-1.77.24-.51.57-.9,1.01-1.18.44-.27.95-.41,1.53-.41.8,0,1.45.22,1.95.65.49.43.78,1.04.85,1.82h-1.44c-.03-.45-.16-.78-.38-.98-.21-.2-.54-.3-.98-.3-.48,0-.84.17-1.08.51-.24.34-.36.88-.37,1.6v.53c0,.75.11,1.31.34,1.65.23.35.59.52,1.08.52.44,0,.78-.1,1-.3.22-.21.34-.52.38-.94h1.44Z" style="fill: #000100; fill-rule: evenodd; stroke-width: 0px;"/>
  <path d="M133.28,47.6c-.06.75-.33,1.34-.83,1.77-.5.43-1.16.65-1.98.65-.89,0-1.6-.3-2.11-.9-.51-.6-.77-1.43-.77-2.48v-.43c0-.67.12-1.26.36-1.77.24-.51.58-.9,1.01-1.18.44-.27.95-.41,1.53-.41.8,0,1.45.22,1.95.65.49.43.78,1.04.85,1.82h-1.44c-.03-.45-.16-.78-.37-.98-.22-.2-.54-.3-.99-.3-.48,0-.84.17-1.08.51-.24.34-.36.88-.36,1.6v.53c0,.75.11,1.31.34,1.65.23.35.59.52,1.08.52.44,0,.78-.1,1-.3.22-.21.34-.52.38-.94h1.44Z" style="fill: #000100; fill-rule: evenodd; stroke-width: 0px;"/>
  <polygon points="138.86 42.94 140.31 42.94 140.31 49.92 138.86 49.92 138.86 45.28 136.07 49.92 134.63 49.92 134.63 42.94 136.07 42.94 136.07 47.58 138.86 42.94" style="fill: #000100; fill-rule: evenodd; stroke-width: 0px;"/>
  <path d="M146.23,46.27c0-.73-.13-1.29-.39-1.67-.26-.38-.64-.57-1.12-.57s-.85.19-1.12.56c-.26.37-.39.92-.4,1.65v.34c0,.71.13,1.27.39,1.66.26.39.64.59,1.13.59s.85-.19,1.11-.57c.26-.38.39-.93.39-1.66v-.34h0ZM147.69,46.59c0,.69-.12,1.29-.37,1.81-.24.52-.59.92-1.04,1.2-.45.28-.97.42-1.56.42s-1.09-.14-1.55-.42c-.45-.28-.81-.67-1.06-1.19-.25-.52-.38-1.11-.38-1.78v-.34c0-.69.13-1.29.37-1.81.25-.52.6-.92,1.05-1.2.45-.28.97-.42,1.55-.42s1.1.14,1.55.42c.45.28.8.68,1.05,1.2.25.52.37,1.12.37,1.81v.31Z" style="fill: #000100; fill-rule: evenodd; stroke-width: 0px;"/>
  <polygon points="154.83 49.92 153.39 49.92 153.39 46.93 150.59 46.93 150.59 49.92 149.15 49.92 149.15 42.94 150.59 42.94 150.59 45.77 153.39 45.77 153.39 42.94 154.83 42.94 154.83 49.92" style="fill: #000100; fill-rule: evenodd; stroke-width: 0px;"/>
  <path d="M158.4,47.32h1.75l-.88-2.61-.87,2.61h0ZM160.54,48.48h-2.52l-.48,1.44h-1.53l2.6-6.98h1.33l2.61,6.98h-1.53l-.49-1.44Z" style="fill: #000100; fill-rule: evenodd; stroke-width: 0px;"/>
  <path d="M169.61,42.94v6.98h-1.44v-5.81h-1.86l-.11,2.46c-.05.83-.15,1.49-.32,1.96-.16.48-.4.83-.71,1.05-.31.22-.74.34-1.29.34h-.37v-1.16l.24-.02c.36-.05.62-.26.77-.63.15-.37.25-1.03.3-1.97l.12-3.2h4.68Z" style="fill: #000100; fill-rule: evenodd; stroke-width: 0px;"/>
  <path d="M172.76,46.62v2.15h1.15c.37,0,.66-.1.88-.3.22-.2.33-.47.33-.81,0-.32-.11-.56-.31-.75-.21-.18-.5-.28-.86-.28h-1.18ZM172.76,45.46h1.12c.82,0,1.47.2,1.95.6.48.4.72.93.72,1.61s-.24,1.22-.72,1.63c-.48.41-1.11.62-1.91.63h-2.62v-6.98h1.45v2.52Z" style="fill: #000100; fill-rule: evenodd; stroke-width: 0px;"/>
  <polygon points="183.53 49.92 182.09 49.92 182.09 46.93 179.29 46.93 179.29 49.92 177.85 49.92 177.85 42.94 179.29 42.94 179.29 45.77 182.09 45.77 182.09 42.94 183.53 42.94 183.53 49.92" style="fill: #000100; fill-rule: evenodd; stroke-width: 0px;"/>
  <path d="M189.47,46.27c0-.73-.13-1.29-.39-1.67-.26-.38-.64-.57-1.12-.57s-.85.19-1.12.56c-.26.37-.4.92-.4,1.65v.34c0,.71.13,1.27.39,1.66.26.39.64.59,1.13.59s.85-.19,1.11-.57c.26-.38.39-.93.39-1.66v-.34h0ZM190.92,46.59c0,.69-.12,1.29-.36,1.81-.24.52-.59.92-1.04,1.2-.45.28-.97.42-1.56.42s-1.09-.14-1.55-.42c-.45-.28-.8-.67-1.05-1.19-.25-.52-.37-1.11-.38-1.78v-.34c0-.69.12-1.29.37-1.81.25-.52.6-.92,1.05-1.2.45-.28.97-.42,1.55-.42s1.1.14,1.55.42c.45.28.8.68,1.05,1.2.25.52.37,1.12.37,1.81v.31Z" style="fill: #000100; fill-rule: evenodd; stroke-width: 0px;"/>
  <polygon points="194.26 42.94 196.06 48 197.84 42.94 199.73 42.94 199.73 49.92 198.28 49.92 198.28 48.01 198.43 44.72 196.54 49.92 195.56 49.92 193.68 44.72 193.82 48.01 193.82 49.92 192.38 49.92 192.38 42.94 194.26 42.94" style="fill: #000100; fill-rule: evenodd; stroke-width: 0px;"/>
  <path d="M204.05,46.24l1.27-3.3h1.55l-2.44,5.76-.2.38c-.36.63-.91.94-1.66.94l-.5-.02-.02-1.15c.08.01.2.02.37.02.2,0,.36-.03.49-.1.12-.07.22-.2.31-.39l.18-.46-2.45-4.97h1.55l1.54,3.3Z" style="fill: #000100; fill-rule: evenodd; stroke-width: 0px;"/>
  <polygon points="2.32 56.44 4.11 61.5 5.89 56.44 7.78 56.44 7.78 63.42 6.34 63.42 6.34 61.51 6.48 58.22 4.6 63.42 3.61 63.42 1.73 58.22 1.88 61.51 1.88 63.42 .44 63.42 .44 56.44 2.32 56.44" style="fill: #000100; fill-rule: evenodd; stroke-width: 0px;"/>
  <path d="M11.35,60.82h1.74l-.88-2.61-.87,2.61h0ZM13.49,61.98h-2.52l-.48,1.44h-1.53l2.6-6.98h1.33l2.61,6.98h-1.53l-.48-1.44Z" style="fill: #000100; fill-rule: evenodd; stroke-width: 0px;"/>
  <path d="M21.84,61.09c-.05.75-.33,1.34-.83,1.77-.5.43-1.16.65-1.98.65-.9,0-1.6-.3-2.11-.9-.51-.6-.77-1.43-.77-2.48v-.43c0-.67.12-1.26.35-1.77.24-.51.57-.9,1.01-1.18.44-.27.95-.41,1.53-.41.8,0,1.45.22,1.95.65.49.43.78,1.04.85,1.82h-1.44c-.04-.45-.16-.78-.38-.98-.22-.2-.54-.3-.99-.3-.48,0-.84.17-1.08.52-.24.34-.36.88-.37,1.6v.53c0,.75.11,1.31.34,1.65.23.35.59.52,1.08.52.44,0,.77-.1.99-.31.22-.2.34-.52.38-.94h1.44Z" style="fill: #000100; fill-rule: evenodd; stroke-width: 0px;"/>
  <polygon points="28.48 57.6 26.35 57.6 26.35 63.42 24.91 63.42 24.91 57.6 22.8 57.6 22.8 56.44 28.48 56.44 28.48 57.6" style="fill: #000100; fill-rule: evenodd; stroke-width: 0px;"/>
  <polygon points="33.93 60.39 31.17 60.39 31.17 62.26 34.41 62.26 34.41 63.42 29.74 63.42 29.74 56.44 34.41 56.44 34.41 57.6 31.17 57.6 31.17 59.27 33.93 59.27 33.93 60.39" style="fill: #000100; fill-rule: evenodd; stroke-width: 0px;"/>
  <path d="M37.21,59.79h1.28c.38,0,.67-.09.87-.27.2-.18.3-.43.3-.77s-.1-.62-.3-.83c-.2-.21-.48-.32-.83-.33h-1.32v2.19h0ZM37.21,60.96v2.46h-1.44v-6.98h2.72c.52,0,.99.1,1.38.29s.7.46.92.82c.21.35.32.75.32,1.2,0,.68-.23,1.22-.7,1.62-.47.39-1.12.59-1.94.59h-1.26Z" style="fill: #000100; fill-rule: evenodd; stroke-width: 0px;"/>
  <path d="M48.02,61.09c-.05.75-.33,1.34-.83,1.77-.5.43-1.16.65-1.98.65-.9,0-1.6-.3-2.11-.9-.51-.6-.77-1.43-.77-2.48v-.43c0-.67.12-1.26.35-1.77.24-.51.58-.9,1.01-1.18.44-.27.95-.41,1.53-.41.8,0,1.45.22,1.95.65.49.43.78,1.04.85,1.82h-1.44c-.03-.45-.16-.78-.38-.98-.22-.2-.54-.3-.98-.3-.48,0-.84.17-1.08.52-.24.34-.36.88-.37,1.6v.53c0,.75.11,1.31.34,1.65.23.35.59.52,1.08.52.44,0,.78-.1.99-.31.22-.2.34-.52.38-.94h1.44Z" style="fill: #000100; fill-rule: evenodd; stroke-width: 0px;"/>
  <polygon points="54.66 57.6 52.52 57.6 52.52 63.42 51.09 63.42 51.09 57.6 48.98 57.6 48.98 56.44 54.66 56.44 54.66 57.6" style="fill: #000100; fill-rule: evenodd; stroke-width: 0px;"/>
  <path d="M57.35,60.38v1.88h1.23c.34,0,.6-.08.79-.24.19-.16.28-.39.28-.67,0-.64-.33-.96-.99-.97h-1.32ZM57.35,59.36h1.06c.73-.01,1.09-.3,1.09-.87,0-.32-.09-.54-.27-.68s-.47-.21-.87-.21h-1.01v1.76h0ZM55.91,63.42v-6.98h2.44c.85,0,1.49.16,1.93.49.44.32.66.8.66,1.43,0,.34-.09.64-.26.9-.18.26-.42.45-.73.57.36.09.64.27.85.54.21.27.31.61.31,1,0,.67-.22,1.18-.64,1.52-.43.34-1.04.52-1.83.53h-2.71Z" style="fill: #000100; fill-rule: evenodd; stroke-width: 0px;"/>
  <path d="M64.96,59.74l1.27-3.3h1.55l-2.44,5.76-.2.38c-.36.63-.91.94-1.66.94l-.5-.02v-1.15c.06.01.19.02.36.02.2,0,.36-.03.49-.1.12-.07.22-.2.31-.39l.18-.46-2.45-4.98h1.55l1.54,3.3Z" style="fill: #000100; fill-rule: evenodd; stroke-width: 0px;"/>
</svg>